<?xml version="1.0" encoding="utf-8"?>
<!-- Generator: Adobe Illustrator 27.7.0, SVG Export Plug-In . SVG Version: 6.00 Build 0)  -->
<svg version="1.1" id="Layer_1" xmlns="http://www.w3.org/2000/svg" xmlns:xlink="http://www.w3.org/1999/xlink" x="0px" y="0px"
	 viewBox="0 0 256 256" style="enable-background:new 0 0 256 256;" xml:space="preserve">
<style type="text/css">
	.st0{fill:#1971C2;}
	.st1{fill:#FFFFFF;}
</style>
<path class="st0" d="M206,256H50c-27.6,0-50-22.4-50-50V50C0,22.4,22.4,0,50,0h156c27.6,0,50,22.4,50,50v156
	C256,233.6,233.6,256,206,256z"/>
<path class="st1" d="M90.5,203c-2.7,0-4.9-0.9-6.7-2.7s-2.7-4-2.7-6.7v-9.4h-9.4c-2.7,0-4.9-0.9-6.7-2.7s-2.7-4-2.7-6.7V81.1
	c0-2.7,0.9-4.9,2.7-6.7s4-2.7,6.7-2.7h9.4v-9.4c0-2.7,0.9-4.9,2.7-6.7s4-2.7,6.7-2.7s4.9,0.9,6.7,2.7s2.7,4,2.7,6.7v9.4h9.4
	c2.7,0,4.9,0.9,6.7,2.7s2.7,4,2.7,6.7v93.8c0,2.7-0.9,4.9-2.7,6.7s-4,2.7-6.7,2.7h-9.4v9.4c0,2.7-0.9,4.9-2.7,6.7S93.2,203,90.5,203
	z M81.1,165.5h18.8v-75H81.1V165.5z M165.5,203c-2.7,0-4.9-0.9-6.7-2.7s-2.7-4-2.7-6.7v-37.5h-9.4c-2.7,0-4.9-0.9-6.7-2.7
	s-2.7-4-2.7-6.7V99.9c0-2.7,0.9-4.9,2.7-6.7s4-2.7,6.7-2.7h9.4V62.4c0-2.7,0.9-4.9,2.7-6.7s4-2.7,6.7-2.7s4.9,0.9,6.7,2.7
	s2.7,4,2.7,6.7v28.1h9.4c2.7,0,4.9,0.9,6.7,2.7s2.7,4,2.7,6.7v46.9c0,2.7-0.9,4.9-2.7,6.7s-4,2.7-6.7,2.7h-9.4v37.5
	c0,2.7-0.9,4.9-2.7,6.7S168.2,203,165.5,203z M156.1,137.4h18.8v-28.1h-18.8V137.4z"/>
</svg>
