<?xml version="1.0" encoding="utf-8"?>
<!-- Generator: Adobe Illustrator 27.7.0, SVG Export Plug-In . SVG Version: 6.00 Build 0)  -->
<svg version="1.1" id="Layer_1" xmlns="http://www.w3.org/2000/svg" xmlns:xlink="http://www.w3.org/1999/xlink" x="0px" y="0px"
	 viewBox="0 0 256 256" style="enable-background:new 0 0 256 256;" xml:space="preserve">
<style type="text/css">
	.st0{fill:#1971C2;}
	.st1{fill:#FFFFFF;}
</style>
<path class="st0" d="M206,256H50c-27.6,0-50-22.4-50-50V50C0,22.4,22.4,0,50,0h156c27.6,0,50,22.4,50,50v156
	C256,233.6,233.6,256,206,256z"/>
<path class="st1" d="M98,187.9c-2.2,0-3.9-0.7-5.4-2.2c-1.4-1.4-2.2-3.2-2.2-5.4v-7.5H83c-2.2,0-3.9-0.7-5.4-2.2
	c-1.4-1.4-2.2-3.2-2.2-5.4V90.5c0-2.2,0.7-3.9,2.2-5.4c1.4-1.4,3.2-2.2,5.4-2.2h7.5v-7.5c0-2.2,0.7-3.9,2.2-5.4
	c1.4-1.4,3.2-2.2,5.4-2.2c2.2,0,3.9,0.7,5.4,2.2c1.4,1.4,2.2,3.2,2.2,5.4V83h7.5c2.2,0,3.9,0.7,5.4,2.2c1.4,1.4,2.2,3.2,2.2,5.4v75
	c0,2.2-0.7,3.9-2.2,5.4c-1.4,1.4-3.2,2.2-5.4,2.2h-7.5v7.5c0,2.2-0.7,3.9-2.2,5.4C101.9,187.3,100.2,187.9,98,187.9z M90.5,158h15
	V98h-15V158z M158,187.9c-2.2,0-3.9-0.7-5.4-2.2s-2.2-3.2-2.2-5.4v-30H143c-2.2,0-3.9-0.7-5.4-2.2s-2.2-3.2-2.2-5.4v-37.4
	c0-2.2,0.7-3.9,2.2-5.4c1.4-1.4,3.2-2.2,5.4-2.2h7.5V75.5c0-2.2,0.7-3.9,2.2-5.4s3.2-2.2,5.4-2.2s3.9,0.7,5.4,2.2s2.2,3.2,2.2,5.4
	V98h7.5c2.2,0,3.9,0.7,5.4,2.2c1.4,1.4,2.2,3.2,2.2,5.4V143c0,2.2-0.7,3.9-2.2,5.4s-3.2,2.2-5.4,2.2h-7.5v30c0,2.2-0.7,3.9-2.2,5.4
	S160.1,187.9,158,187.9z M150.5,135.5h15V113h-15V135.5z"/>
</svg>
